<svg width="27" height="26" viewBox="0 0 27 26" fill="none" xmlns="http://www.w3.org/2000/svg">
<path d="M26.2394 6.63548C26.2394 5.836 26.172 5.03978 25.9811 4.26143C25.6382 2.84366 24.8298 1.76063 23.62 0.96522C22.9977 0.558982 22.3128 0.309553 21.5848 0.177932C21.0257 0.0801242 20.4599 0.0263358 19.8924 0.017062C19.8501 0.0129996 19.8038 0.00406237 19.7567 0H6.73192C6.56699 0.0129996 6.40206 0.0211243 6.23713 0.0292491C5.42871 0.0755601 4.62518 0.160058 3.86307 0.464735C2.41606 1.03591 1.3704 2.03444 0.761047 3.47333C0.549803 3.96 0.443369 4.47592 0.367809 5.00078C0.304436 5.42408 0.270312 5.85144 0.258125 6.2788C0.258125 6.31293 0.25 6.34624 0.25 6.38036V19.6213L0.275187 20.0787C0.330435 20.9635 0.444181 21.8393 0.817107 22.6518C1.5199 24.1882 2.70042 25.1989 4.32131 25.6856C4.77386 25.8253 5.24834 25.8887 5.72202 25.9309C6.32325 25.9902 6.92367 25.9984 7.5249 25.9984H19.4748C20.0419 25.9984 20.609 25.9602 21.1761 25.8887C22.069 25.7741 22.9067 25.5117 23.6647 25.0128C24.562 24.4316 25.2695 23.6004 25.7 22.6217C25.9031 22.1643 26.0176 21.6784 26.1021 21.1869C26.2248 20.4549 26.25 19.7139 26.25 18.9737C26.2459 14.8602 26.25 10.7474 26.2459 6.63385L26.2394 6.63548ZM19.2822 10.9554V17.1424C19.2822 17.5949 19.2188 18.0394 19.0157 18.4497C18.7029 19.0883 18.1951 19.4905 17.5135 19.6854C17.1358 19.7937 16.7466 19.8561 16.3541 19.8715C15.8605 19.9007 15.3734 19.7473 14.9855 19.4407C14.5976 19.134 14.336 18.6954 14.2506 18.2084C14.1723 17.7702 14.2399 17.3184 14.4432 16.9224C14.6465 16.5264 14.9741 16.2081 15.3758 16.0163C15.7228 15.8473 16.0998 15.7458 16.4759 15.6694C16.8862 15.5808 17.2965 15.5004 17.7028 15.407C18.0034 15.3395 18.1976 15.1575 18.2569 14.848C18.2739 14.7805 18.278 14.7082 18.278 14.6408V8.74223C18.2765 8.67492 18.2667 8.60805 18.2488 8.54317C18.2065 8.37824 18.0879 8.28074 17.9189 8.28887C17.745 8.29699 17.576 8.32705 17.407 8.36118C16.5816 8.52205 15.7569 8.68698 14.9355 8.85597L10.9284 9.66439C10.9113 9.66845 10.8902 9.67738 10.8731 9.67738C10.5725 9.76188 10.4669 9.89757 10.4539 10.2104C10.4498 10.2567 10.4539 10.3038 10.4539 10.3501C10.4498 13.1686 10.4539 15.9871 10.4498 18.8047C10.4498 19.2621 10.3986 19.7106 10.2174 20.1331C9.91682 20.827 9.38384 21.2633 8.6648 21.4705C8.28467 21.5811 7.89216 21.6436 7.49646 21.6565C6.45974 21.6947 5.59608 21.0049 5.41896 19.9852C5.26622 19.1053 5.66839 18.1572 6.66692 17.7339C7.0561 17.573 7.45828 17.4845 7.86857 17.4L8.79967 17.2098C9.21403 17.1213 9.43015 16.8588 9.45128 16.4355V16.2747V6.65173C9.45128 6.51605 9.46834 6.38118 9.49759 6.24955C9.57396 5.94081 9.79414 5.76288 10.0899 5.69057C10.3653 5.61826 10.6489 5.56789 10.9275 5.50858C11.723 5.34771 12.5143 5.18684 13.3097 5.03003L15.7683 4.53036C16.4962 4.38655 17.2193 4.23868 17.9473 4.09487C18.1846 4.04856 18.4259 3.99738 18.6664 3.98031C19.0003 3.95106 19.2335 4.16231 19.2676 4.50111C19.2757 4.58154 19.2806 4.66198 19.2806 4.74241V10.9505L19.2822 10.9554Z" fill="white" fill-opacity="0.81"/>
</svg>