<svg width="26" height="21" viewBox="0 0 26 21" fill="none" xmlns="http://www.w3.org/2000/svg">
<path d="M22.1 0H3.9C2.86566 0 1.87368 0.410892 1.14228 1.14228C0.410892 1.87368 0 2.86566 0 3.9V16.9C0 17.9343 0.410892 18.9263 1.14228 19.6577C1.87368 20.3891 2.86566 20.8 3.9 20.8H22.1C23.1343 20.8 24.1263 20.3891 24.8577 19.6577C25.5891 18.9263 26 17.9343 26 16.9V3.9C26 2.86566 25.5891 1.87368 24.8577 1.14228C24.1263 0.410892 23.1343 0 22.1 0V0ZM21.229 2.6L13 8.775L4.771 2.6H21.229ZM22.1 18.2H3.9C3.55522 18.2 3.22456 18.063 2.98076 17.8192C2.73696 17.5754 2.6 17.2448 2.6 16.9V4.225L12.22 11.44C12.445 11.6088 12.7187 11.7 13 11.7C13.2813 11.7 13.555 11.6088 13.78 11.44L23.4 4.225V16.9C23.4 17.2448 23.263 17.5754 23.0192 17.8192C22.7754 18.063 22.4448 18.2 22.1 18.2Z" fill="white"/>
</svg>
