<svg width="27" height="26" viewBox="0 0 27 26" fill="none" xmlns="http://www.w3.org/2000/svg">
<path fill-rule="evenodd" clip-rule="evenodd" d="M8.0677 0.078C9.45397 0.0141818 9.89597 0 13.4272 0C16.9585 0 17.4005 0.0153636 18.7856 0.078C20.1707 0.140636 21.1162 0.361636 21.9434 0.681909C22.8097 1.00927 23.5956 1.521 24.2456 2.18282C24.9074 2.83164 25.418 3.61636 25.7442 4.48382C26.0656 5.31109 26.2854 6.25655 26.3492 7.63927C26.4131 9.02791 26.4272 9.46991 26.4272 13C26.4272 16.5313 26.4119 16.9733 26.3492 18.3595C26.2866 19.7423 26.0656 20.6877 25.7442 21.515C25.418 22.3826 24.9066 23.1686 24.2456 23.8184C23.5956 24.4802 22.8097 24.9907 21.9434 25.3169C21.1162 25.6384 20.1707 25.8582 18.788 25.922C17.4005 25.9858 16.9585 26 13.4272 26C9.89597 26 9.45397 25.9846 8.0677 25.922C6.68497 25.8594 5.73952 25.6384 4.91225 25.3169C4.0447 24.9907 3.25867 24.4793 2.60888 23.8184C1.94751 23.1692 1.43571 22.3835 1.10916 21.5162C0.788883 20.6889 0.569064 19.7435 0.505246 18.3607C0.441428 16.9721 0.427246 16.5301 0.427246 13C0.427246 9.46873 0.44261 9.02673 0.505246 7.64164C0.567882 6.25655 0.788883 5.31109 1.10916 4.48382C1.43619 3.61646 1.94839 2.83083 2.61006 2.18164C3.25893 1.52041 4.04417 1.00862 4.91106 0.681909C5.73834 0.361636 6.68497 0.141818 8.0677 0.078ZM18.6804 2.418C17.3095 2.35536 16.8982 2.34236 13.4272 2.34236C9.95625 2.34236 9.54497 2.35536 8.17406 2.418C6.90597 2.47591 6.21816 2.68745 5.75961 2.86591C5.15334 3.10227 4.71961 3.38236 4.26461 3.83736C3.8333 4.25697 3.50137 4.76779 3.29316 5.33236C3.1147 5.79091 2.90316 6.47873 2.84525 7.74682C2.78261 9.11773 2.76961 9.529 2.76961 13C2.76961 16.471 2.78261 16.8823 2.84525 18.2532C2.90316 19.5213 3.1147 20.2091 3.29316 20.6676C3.50116 21.2314 3.83325 21.7431 4.26461 22.1626C4.68416 22.594 5.19588 22.9261 5.75961 23.1341C6.21816 23.3125 6.90597 23.5241 8.17406 23.582C9.54497 23.6446 9.95506 23.6576 13.4272 23.6576C16.8994 23.6576 17.3095 23.6446 18.6804 23.582C19.9485 23.5241 20.6363 23.3125 21.0949 23.1341C21.7012 22.8977 22.1349 22.6176 22.5899 22.1626C23.0212 21.7431 23.3533 21.2314 23.5613 20.6676C23.7398 20.2091 23.9513 19.5213 24.0092 18.2532C24.0719 16.8823 24.0849 16.471 24.0849 13C24.0849 9.529 24.0719 9.11773 24.0092 7.74682C23.9513 6.47873 23.7398 5.79091 23.5613 5.33236C23.325 4.72609 23.0449 4.29236 22.5899 3.83736C22.1703 3.40608 21.6594 3.07416 21.0949 2.86591C20.6363 2.68745 19.9485 2.47591 18.6804 2.418ZM11.7668 17.0075C12.6941 17.3936 13.7267 17.4457 14.6882 17.1549C15.6496 16.8642 16.4803 16.2487 17.0384 15.4136C17.5965 14.5784 17.8473 13.5754 17.748 12.5759C17.6487 11.5763 17.2055 10.6422 16.4941 9.93318C16.0405 9.47993 15.4921 9.13287 14.8884 8.91699C14.2846 8.70112 13.6405 8.62179 13.0024 8.68473C12.3643 8.74767 11.7481 8.9513 11.1981 9.28097C10.6481 9.61065 10.1781 10.0582 9.82188 10.5913C9.46563 11.1244 9.23201 11.7299 9.13786 12.3641C9.0437 12.9984 9.09133 13.6456 9.27734 14.2592C9.46334 14.8729 9.78309 15.4376 10.2136 15.9129C10.644 16.3881 11.1745 16.7619 11.7668 17.0075ZM8.70234 8.27509C9.32282 7.65461 10.0594 7.16241 10.8701 6.82661C11.6808 6.49081 12.5497 6.31797 13.4272 6.31797C14.3047 6.31797 15.1736 6.49081 15.9843 6.82661C16.7951 7.16241 17.5317 7.65461 18.1522 8.27509C18.7726 8.89558 19.2648 9.6322 19.6006 10.4429C19.9364 11.2536 20.1093 12.1225 20.1093 13C20.1093 13.8775 19.9364 14.7464 19.6006 15.5571C19.2648 16.3678 18.7726 17.1044 18.1522 17.7249C16.899 18.978 15.1994 19.682 13.4272 19.682C11.6551 19.682 9.95546 18.978 8.70234 17.7249C7.44921 16.4718 6.74522 14.7722 6.74522 13C6.74522 11.2278 7.44921 9.52822 8.70234 8.27509ZM21.5912 7.31309C21.745 7.16805 21.8681 6.99362 21.9532 6.80015C22.0384 6.60668 22.0838 6.39809 22.0869 6.18674C22.09 5.97538 22.0506 5.76556 21.9712 5.56968C21.8917 5.37381 21.7738 5.19588 21.6243 5.04641C21.4748 4.89694 21.2969 4.77899 21.101 4.69952C20.9051 4.62006 20.6953 4.5807 20.484 4.58378C20.2726 4.58686 20.064 4.63232 19.8706 4.71746C19.6771 4.8026 19.5027 4.92569 19.3576 5.07945C19.0755 5.37849 18.9211 5.77569 18.9271 6.18674C18.9331 6.59778 19.099 6.99031 19.3897 7.281C19.6804 7.57168 20.0729 7.73763 20.484 7.74363C20.895 7.74962 21.2922 7.59518 21.5912 7.31309Z" fill="white"/>
</svg>
