<svg width="24" height="24" viewBox="0 0 24 24" fill="none" xmlns="http://www.w3.org/2000/svg">
<path fill-rule="evenodd" clip-rule="evenodd" d="M12 2.18182C6.57757 2.18182 2.18182 6.57757 2.18182 12C2.18182 17.4224 6.57757 21.8182 12 21.8182C17.4224 21.8182 21.8182 17.4224 21.8182 12C21.8182 6.57757 17.4224 2.18182 12 2.18182ZM0 12C0 5.37258 5.37258 0 12 0C18.6274 0 24 5.37258 24 12C24 18.6274 18.6274 24 12 24C5.37258 24 0 18.6274 0 12Z" fill="white"/>
<path fill-rule="evenodd" clip-rule="evenodd" d="M9.81818 7.63636C10.4207 7.63636 10.9091 8.12478 10.9091 8.72727V15.2727C10.9091 15.8752 10.4207 16.3636 9.81818 16.3636C9.21569 16.3636 8.72727 15.8752 8.72727 15.2727V8.72727C8.72727 8.12478 9.21569 7.63636 9.81818 7.63636Z" fill="white"/>
<path fill-rule="evenodd" clip-rule="evenodd" d="M14.1818 7.63636C14.7843 7.63636 15.2727 8.12478 15.2727 8.72727V15.2727C15.2727 15.8752 14.7843 16.3636 14.1818 16.3636C13.5793 16.3636 13.0909 15.8752 13.0909 15.2727V8.72727C13.0909 8.12478 13.5793 7.63636 14.1818 7.63636Z" fill="white"/>
</svg>
