<svg width="24" height="24" viewBox="0 0 24 24" fill="none" xmlns="http://www.w3.org/2000/svg">
<path fill-rule="evenodd" clip-rule="evenodd" d="M12 2.18182C6.57757 2.18182 2.18182 6.57757 2.18182 12C2.18182 17.4224 6.57757 21.8182 12 21.8182C17.4224 21.8182 21.8182 17.4224 21.8182 12C21.8182 6.57757 17.4224 2.18182 12 2.18182ZM0 12C0 5.37258 5.37258 0 12 0C18.6274 0 24 5.37258 24 12C24 18.6274 18.6274 24 12 24C5.37258 24 0 18.6274 0 12Z" fill="white"/>
<path d="M15.9423 11.3868L9.94398 7.74002C9.4055 7.44011 8.72727 7.82523 8.72727 8.45574V15.5447C8.72727 16.1718 9.40209 16.5603 9.94398 16.2604L15.9423 12.8182C16.5013 12.508 16.5013 11.7003 15.9423 11.3868Z" fill="white"/>
</svg>
