<svg width="26" height="26" viewBox="0 0 26 26" fill="none" xmlns="http://www.w3.org/2000/svg">
<path d="M20.6898 11.5248C16.4994 9.03624 9.58735 8.80743 5.58705 10.0215C4.94464 10.2163 4.26536 9.85372 4.07071 9.21135C3.87606 8.56867 4.23832 7.88982 4.88115 7.69454C9.47324 6.30052 17.1068 6.56985 21.9309 9.43349C22.5089 9.77641 22.6984 10.5226 22.3558 11.0996C22.0131 11.6773 21.2662 11.8678 20.6898 11.5248ZM20.5526 15.2107C20.2587 15.6878 19.635 15.8373 19.1586 15.5445C15.665 13.3971 10.3377 12.775 6.20454 14.0295C5.66855 14.1915 5.10242 13.8893 4.93967 13.3543C4.77812 12.8183 5.08047 12.2532 5.61549 12.0902C10.3371 10.6575 16.2066 11.3515 20.2192 13.8173C20.6956 14.1107 20.8455 14.7348 20.5526 15.2107ZM18.9619 18.7506C18.7284 19.1336 18.2295 19.2537 17.8479 19.0202C14.7951 17.1545 10.9527 16.733 6.42757 17.7667C5.99145 17.8667 5.55691 17.5933 5.4574 17.1574C5.35754 16.7214 5.62974 16.2869 6.06683 16.1874C11.0188 15.0553 15.2667 15.5425 18.6932 17.6363C19.0752 17.8696 19.1955 18.3687 18.9619 18.7506ZM13 9.77488e-05C5.82045 9.77488e-05 0 5.82021 0 12.9998C0 20.18 5.82045 26 13 26C20.1799 26 26 20.18 26 12.9998C26 5.82021 20.1799 9.77488e-05 13 9.77488e-05Z" fill="white" fill-opacity="0.81"/>
</svg>
