<svg width="31" height="25" viewBox="0 0 31 25" fill="none" xmlns="http://www.w3.org/2000/svg">
<path d="M30.6772 2.89287C29.574 3.38173 28.3889 3.71204 27.1429 3.86134C28.4285 3.0921 29.3903 1.88142 29.8488 0.45519C28.641 1.17261 27.3191 1.67759 25.9406 1.94819C25.0136 0.958403 23.7858 0.302358 22.4477 0.0819066C21.1096 -0.138545 19.7362 0.0889323 18.5407 0.72902C17.3451 1.36911 16.3944 2.386 15.836 3.6218C15.2776 4.85761 15.1429 6.2432 15.4526 7.56344C13.0053 7.44056 10.6111 6.80446 8.42554 5.69641C6.23994 4.58836 4.31176 3.03314 2.76612 1.13166C2.23763 2.04332 1.93374 3.10031 1.93374 4.226C1.93315 5.23938 2.18271 6.23724 2.66026 7.13105C3.13782 8.02485 3.82861 8.78696 4.67134 9.34976C3.69399 9.31866 2.73821 9.05457 1.88354 8.57947V8.65875C1.88344 10.0801 2.37508 11.4576 3.27504 12.5577C4.175 13.6578 5.42785 14.4126 6.821 14.6942C5.91434 14.9395 4.96378 14.9757 4.04111 14.7999C4.43418 16.0228 5.19983 17.0922 6.23089 17.8584C7.26194 18.6246 8.50678 19.0492 9.79114 19.0727C7.61088 20.7843 4.91827 21.7127 2.14646 21.7086C1.65546 21.7087 1.16488 21.6801 0.677246 21.6227C3.49079 23.4317 6.76595 24.3918 10.1109 24.3881C21.4339 24.3881 27.6239 15.0099 27.6239 6.8764C27.6239 6.61215 27.6173 6.34526 27.6054 6.08102C28.8094 5.21029 29.8487 4.13205 30.6746 2.89684L30.6772 2.89287Z" fill="white"/>
</svg>