<svg width="29" height="20" viewBox="0 0 29 20" fill="none" xmlns="http://www.w3.org/2000/svg">
<path d="M11.5081 14.1152V5.88475L18.7419 10.0002L11.5081 14.1152ZM27.599 3.29499C27.2807 2.09637 26.3428 1.1525 25.1521 0.83217C22.9937 0.25 14.3387 0.25 14.3387 0.25C14.3387 0.25 5.68374 0.25 3.52531 0.83217C2.33451 1.1525 1.39662 2.09637 1.07835 3.29499C0.5 5.4674 0.5 10 0.5 10C0.5 10 0.5 14.5325 1.07835 16.705C1.39662 17.9036 2.33451 18.8475 3.52531 19.168C5.68374 19.75 14.3387 19.75 14.3387 19.75C14.3387 19.75 22.9937 19.75 25.1521 19.168C26.3428 18.8475 27.2807 17.9036 27.599 16.705C28.1774 14.5325 28.1774 10 28.1774 10C28.1774 10 28.1774 5.4674 27.599 3.29499Z" fill="white" fill-opacity="0.81"/>
</svg>
