<svg height="18" viewBox="0 0 94 18" fill="none" xmlns="http://www.w3.org/2000/svg">
<path d="M28.6058 4.85477V3.73444C28.6058 3.58506 28.7552 3.43568 28.9046 3.43568H33.9087C34.0581 3.43568 34.2075 3.58506 34.2075 3.73444V4.70539C34.2075 4.85477 34.0581 5.07884 33.834 5.37759L31.2199 9.11203C32.1909 9.11203 33.2365 9.26141 34.0581 9.70954C34.2822 9.78423 34.2822 10.0083 34.3568 10.1577V11.3527C34.3568 11.5021 34.2075 11.7261 33.9834 11.5768C32.4149 10.7552 30.3983 10.6805 28.6805 11.5768C28.5311 11.6515 28.3071 11.5021 28.3071 11.3527V10.2324C28.3071 10.083 28.3071 9.70954 28.5311 9.48548L31.5187 5.15353H28.9046C28.7552 5.15353 28.6058 5.00415 28.6058 4.85477ZM10.3071 11.8008H8.81328C8.6639 11.8008 8.58921 11.6515 8.51452 11.5768V3.73444C8.51452 3.58506 8.6639 3.43568 8.81328 3.43568H10.2324C10.3817 3.43568 10.5311 3.58506 10.5311 3.73444V4.78008C10.9046 3.80913 11.5768 3.361 12.5477 3.361C13.5187 3.361 14.1162 3.80913 14.5643 4.78008C14.9378 3.80913 15.7593 3.361 16.6556 3.361C17.3278 3.361 18 3.65975 18.4481 4.18257C18.8963 4.85477 18.8216 5.82573 18.8216 6.6473V11.5768C18.8216 11.7261 18.6722 11.8755 18.5228 11.8755H17.029C16.8797 11.8755 16.7303 11.7261 16.7303 11.5768V7.46888C16.7303 7.17012 16.7303 6.34855 16.6556 5.9751C16.5062 5.45228 16.2075 5.3029 15.7593 5.3029C15.3859 5.3029 15.0124 5.52697 14.8631 5.9751C14.7137 6.34855 14.7137 7.02075 14.7137 7.46888V11.5768C14.7137 11.7261 14.5643 11.8755 14.4149 11.8755H12.9212C12.7718 11.8755 12.6224 11.7261 12.6224 11.5768V7.46888C12.6224 6.57261 12.7718 5.3029 11.6515 5.3029C10.5311 5.3029 10.6058 6.57261 10.6058 7.46888V11.5768C10.6058 11.7261 10.4564 11.8008 10.3071 11.8008ZM38.5394 3.28631C40.7801 3.28631 42.0498 5.22822 42.0498 7.69295C42.0498 10.083 40.7054 11.9502 38.5394 11.9502C36.2988 11.9502 35.1037 10.0083 35.1037 7.61826C35.1037 5.15353 36.2988 3.28631 38.5394 3.28631ZM38.5394 4.92946C37.4191 4.92946 37.3444 6.42324 37.3444 7.39419C37.3444 8.36514 37.3444 10.3817 38.5394 10.3817C39.7344 10.3817 39.8091 8.73859 39.8091 7.76763C39.8091 7.09544 39.8091 6.34855 39.5851 5.67635C39.361 5.07884 38.9876 4.92946 38.5394 4.92946ZM44.9627 11.8008H43.4689C43.3195 11.8008 43.1701 11.6515 43.1701 11.5021V3.65975C43.1701 3.51037 43.3195 3.43568 43.4689 3.43568H44.888C45.0373 3.43568 45.112 3.51037 45.1867 3.65975V4.85477C45.6349 3.80913 46.2324 3.28631 47.278 3.28631C47.9502 3.28631 48.6224 3.51037 49.0705 4.18257C49.444 4.78008 49.444 5.82573 49.444 6.6473V11.5768C49.444 11.7261 49.2946 11.8008 49.1452 11.8008H47.6515C47.5021 11.8008 47.4274 11.6515 47.3527 11.5768V7.3195C47.3527 6.49793 47.4274 5.22822 46.3817 5.22822C46.0083 5.22822 45.6349 5.45228 45.4855 5.82573C45.2614 6.27386 45.2614 6.79668 45.2614 7.3195V11.5021C45.2614 11.7261 45.112 11.8008 44.9627 11.8008ZM26.1411 11.8008C26.0664 11.8755 25.917 11.8755 25.7676 11.8008C25.2448 11.3527 25.1701 11.2033 24.8714 10.7552C24.0498 11.5768 23.4523 11.8755 22.332 11.8755C21.0622 11.8755 20.0166 11.0539 20.0166 9.48548C20.0166 8.21577 20.6888 7.39419 21.6598 7.02075C22.4813 6.6473 23.6763 6.57261 24.4979 6.49793V6.27386C24.4979 5.90041 24.4979 5.45228 24.3485 5.15353C24.1992 4.85477 23.8257 4.78008 23.527 4.78008C22.9295 4.78008 22.4066 5.07884 22.332 5.67635C22.332 5.82573 22.1826 5.9751 22.0332 5.9751L20.5394 5.82573C20.39 5.82573 20.2407 5.67635 20.3154 5.52697C20.6888 3.73444 22.2573 3.21162 23.751 3.21162C24.4979 3.21162 25.4689 3.43568 26.0664 3.95851C26.8133 4.63071 26.7386 5.60166 26.7386 6.57262V8.96266C26.7386 9.70954 27.0373 10.0083 27.3361 10.3817C27.4108 10.5311 27.4855 10.6805 27.3361 10.7552C26.9627 11.0539 26.4398 11.5021 26.1411 11.8008ZM24.5726 8.06639V7.76763C23.4523 7.76763 22.332 7.9917 22.332 9.3361C22.332 10.0083 22.7054 10.4564 23.2282 10.4564C23.6763 10.4564 24.0498 10.1577 24.2739 9.78423C24.5726 9.18672 24.5726 8.6639 24.5726 8.06639ZM6.12448 11.8008C6.04979 11.8755 5.90041 11.8755 5.75104 11.8008C5.22822 11.3527 5.15353 11.2033 4.85477 10.7552C4.0332 11.5768 3.43568 11.8755 2.31535 11.8755C1.04564 11.8755 0 11.0539 0 9.48548C0 8.21577 0.672199 7.39419 1.64315 7.02075C2.46473 6.6473 3.65975 6.57261 4.48133 6.49793V6.27386C4.48133 5.90041 4.48133 5.45228 4.33195 5.15353C4.18257 4.85477 3.80913 4.78008 3.51037 4.78008C2.91286 4.78008 2.39004 5.07884 2.31535 5.67635C2.31535 5.82573 2.16598 5.9751 2.0166 5.9751L0.522822 5.82573C0.373444 5.82573 0.224066 5.67635 0.298755 5.52697C0.672199 3.73444 2.24066 3.21162 3.73444 3.21162C4.48133 3.21162 5.45228 3.43568 6.04979 3.95851C6.79668 4.63071 6.72199 5.60166 6.72199 6.57262V8.96266C6.72199 9.70954 7.02075 10.0083 7.3195 10.3817C7.39419 10.5311 7.46888 10.6805 7.3195 10.7552C6.94606 11.0539 6.42324 11.5021 6.12448 11.8008ZM4.55602 8.06639V7.76763C3.43568 7.76763 2.31535 7.9917 2.31535 9.3361C2.31535 10.0083 2.6888 10.4564 3.21162 10.4564C3.65975 10.4564 4.0332 10.1577 4.25726 9.78423C4.55602 9.18672 4.55602 8.6639 4.55602 8.06639ZM30.6971 14.7884C27.8589 16.8797 23.6763 18 20.0913 18C15.0871 18 10.5311 16.1328 7.17013 13.0705C6.87137 12.8465 7.17012 12.473 7.46888 12.6971C11.1286 14.8631 15.6846 16.1328 20.39 16.1328C23.6017 16.1328 27.0373 15.4606 30.249 14.1162C30.7718 13.9668 31.1452 14.4896 30.6971 14.7884ZM31.8921 13.444C31.5187 12.9959 29.5021 13.2199 28.5311 13.3693C28.2324 13.3693 28.2324 13.1452 28.4564 12.9959C30.0996 11.8755 32.7884 12.1743 33.0871 12.5477C33.3859 12.9212 33.0124 15.61 31.444 16.8797C31.2199 17.1037 30.9958 16.9544 31.0705 16.7303C31.444 15.834 32.1909 13.9668 31.8921 13.444ZM80.5145 10.4564C80.8133 10.2324 80.9627 9.93361 80.9627 9.56017C80.9627 9.26141 80.888 9.11203 80.7386 8.88797C80.5892 8.73859 80.2905 8.58921 79.8423 8.36515L78.4232 7.84232C77.2282 7.39419 76.556 6.6473 76.556 5.52697C76.556 4.78008 76.8548 4.25726 77.3776 3.80913C77.9004 3.361 78.6473 3.13693 79.5436 3.13693C80.2905 3.13693 80.9627 3.28631 81.6348 3.51037C81.7842 3.58506 81.8589 3.58506 81.9336 3.65975C82.0083 3.73444 82.0083 3.80913 82.0083 3.95851V4.55602C82.0083 4.78008 81.9336 4.85477 81.7842 4.85477C81.7095 4.85477 81.5602 4.85477 81.4108 4.78008C80.8133 4.63071 80.2158 4.48133 79.6183 4.48133C78.5726 4.48133 78.0498 4.85477 78.0498 5.52697C78.0498 5.82573 78.1245 6.04979 78.3485 6.19917C78.4979 6.34855 78.8714 6.57261 79.3942 6.72199L80.6639 7.24481C81.3361 7.46888 81.7842 7.76763 82.083 8.14108C82.3817 8.51452 82.5311 8.96266 82.5311 9.48548C82.5311 10.2324 82.2324 10.9046 81.6348 11.3527C81.0373 11.8008 80.2905 12.0249 79.3195 12.0249C78.4232 12.0249 77.6017 11.8755 76.8548 11.5768C76.7054 11.5021 76.6307 11.4274 76.556 11.4274C76.4813 11.3527 76.4813 11.278 76.4813 11.1286V10.6805C76.4813 10.4564 76.556 10.3817 76.7054 10.3817C76.7801 10.3817 76.9295 10.3817 77.1535 10.4564C77.9004 10.6805 78.6473 10.8299 79.3942 10.8299C79.7676 10.8299 80.2158 10.6805 80.5145 10.4564ZM73.195 3.80913C73.195 3.58506 73.2697 3.51037 73.4938 3.51037H74.4647C74.6888 3.51037 74.7635 3.58506 74.7635 3.80913V11.5021C74.7635 11.7261 74.6888 11.8008 74.4647 11.8008H73.7925C73.7178 11.8008 73.5685 11.8008 73.5685 11.7261C73.4938 11.6515 73.4938 11.5768 73.4191 11.5021L73.2697 10.9046C72.2241 11.6515 71.1784 12.0249 70.1328 12.0249C69.3859 12.0249 68.7884 11.8008 68.3402 11.3527C67.8921 10.9046 67.7427 10.3071 67.7427 9.48548V3.80913C67.7427 3.58506 67.8174 3.51037 68.0415 3.51037H69.0125C69.2365 3.51037 69.3112 3.58506 69.3112 3.80913V9.03734C69.3112 9.63486 69.4606 10.083 69.6846 10.3071C69.9087 10.6058 70.2822 10.7552 70.805 10.7552C71.6266 10.7552 72.3734 10.4564 73.195 9.93361V3.80913ZM64.3817 11.8008C64.1577 11.8008 64.083 11.7261 64.083 11.5021V6.19917C64.083 5.67635 64.0083 5.22822 63.7842 5.00415C63.5602 4.70539 63.2614 4.63071 62.8133 4.63071C61.9917 4.63071 61.1701 4.85477 60.4232 5.37759C60.4232 5.45228 60.4232 5.52697 60.4232 5.60166V11.5768C60.4232 11.8008 60.3485 11.8755 60.1245 11.8755H59.1535C58.9295 11.8755 58.8548 11.8008 58.8548 11.5768V6.27386C58.8548 5.75104 58.7801 5.3029 58.556 5.07884C58.332 4.78008 58.0332 4.70539 57.5851 4.70539C56.7635 4.70539 55.9419 4.92946 55.195 5.45228V11.6515C55.195 11.8755 55.1203 11.9502 54.8963 11.9502H53.9253C53.7012 11.9502 53.6266 11.8755 53.6266 11.6515V3.80913C53.6266 3.58506 53.7012 3.51037 53.9253 3.51037H54.6722C54.7469 3.51037 54.8963 3.51037 54.8963 3.58506C54.971 3.65975 54.971 3.73444 55.0456 3.80913L55.1203 4.33195C56.166 3.58506 57.2116 3.21162 58.1826 3.21162C59.2282 3.21162 59.9004 3.58506 60.2739 4.40664C61.3942 3.65975 62.4398 3.21162 63.5602 3.21162C64.3071 3.21162 64.9046 3.43568 65.278 3.88382C65.6515 4.33195 65.8755 4.92946 65.8755 5.67635V11.5021C65.8755 11.7261 65.8008 11.8008 65.5768 11.8008H64.3817ZM89.5519 5.3029C89.1784 5.75104 88.9544 6.49793 88.9544 7.54357V7.76763C88.9544 8.73859 89.1784 9.48548 89.5519 9.93361C90 10.3817 90.5975 10.6058 91.4938 10.6058C91.9419 10.6058 92.4647 10.5311 92.9876 10.3817C93.1369 10.3817 93.2116 10.3071 93.2116 10.3071C93.361 10.3071 93.4357 10.3817 93.4357 10.6058V11.0539C93.4357 11.2033 93.4357 11.278 93.361 11.3527C93.2863 11.4274 93.2116 11.5021 93.0622 11.5021C92.5394 11.7261 91.8672 11.8755 91.195 11.8755C89.9253 11.8755 88.8797 11.5021 88.2075 10.7552C87.5353 10.0083 87.1618 8.96266 87.1618 7.54357C87.1618 6.12448 87.5353 5.07884 88.2075 4.33195C88.8797 3.58506 89.9253 3.21162 91.195 3.21162C91.7925 3.21162 92.39 3.28631 92.9129 3.51037C93.0622 3.58506 93.1369 3.58506 93.1369 3.65975C93.2116 3.73444 93.2116 3.80913 93.2116 3.95851V4.55602C93.2116 4.78008 93.1369 4.85477 92.9876 4.85477C92.9129 4.85477 92.8382 4.85477 92.6888 4.78008C92.2407 4.63071 91.7925 4.55602 91.3444 4.55602C90.5975 4.63071 89.9253 4.85477 89.5519 5.3029ZM85.1452 3.51037C85.3693 3.51037 85.444 3.58506 85.444 3.80913V11.5021C85.444 11.7261 85.3693 11.8008 85.1452 11.8008H84.1743C83.9502 11.8008 83.8755 11.7261 83.8755 11.5021V3.80913C83.8755 3.58506 83.9502 3.51037 84.1743 3.51037H85.1452ZM85.444 0.298755C85.5934 0.448133 85.7427 0.746888 85.7427 1.04564C85.7427 1.3444 85.6681 1.56846 85.444 1.79253C85.2946 1.94191 84.9959 2.09129 84.6971 2.09129C84.3983 2.09129 84.0996 2.0166 83.9502 1.79253C83.8008 1.64315 83.6515 1.3444 83.6515 1.04564C83.6515 0.746888 83.7261 0.522822 83.9502 0.298755C84.0996 0.149378 84.3983 0 84.6971 0C84.9959 0 85.2946 0.0746889 85.444 0.298755Z" fill="white"/>
</svg>
