<svg height="28" viewBox="0 0 125 34" fill="none" xmlns="http://www.w3.org/2000/svg">
<path d="M44.7757 19.1733H40.3864L39.333 22.2857H37.4736L41.632 10.77H43.5631L47.7215 22.2857H45.83L44.7757 19.1733ZM40.8408 17.7372H44.3203L42.6045 12.6855H42.5566L40.8408 17.7372Z" fill="white"/>
<path d="M56.6905 18.0887C56.6905 20.6988 55.294 22.375 53.1872 22.375C52.0979 22.432 51.0721 21.8616 50.5459 20.9067H50.5063V25.0642H48.7822V13.8908H50.4502V15.2882H50.4824C51.0316 14.3379 52.0593 13.7675 53.1559 13.8034C55.2866 13.8034 56.6905 15.487 56.6905 18.0887ZM54.9195 18.0887C54.9195 16.3895 54.0419 15.2717 52.7005 15.2717C51.384 15.2717 50.498 16.4125 50.498 18.0887C50.498 19.7806 51.384 20.914 52.7005 20.914C54.0409 20.914 54.9195 19.8045 54.9195 18.0887Z" fill="white"/>
<path d="M65.9249 18.0887C65.9249 20.6988 64.5284 22.375 62.4216 22.375C61.3323 22.432 60.3065 21.8616 59.7802 20.9067H59.7407V25.0642H58.0166V13.8908H59.6846V15.2882H59.7168C60.266 14.3379 61.2936 13.7675 62.3903 13.8034C64.5201 13.8034 65.9249 15.487 65.9249 18.0887ZM64.153 18.0887C64.153 16.3895 63.2753 15.2717 61.934 15.2717C60.6174 15.2717 59.7315 16.4125 59.7315 18.0887C59.7315 19.7806 60.6174 20.914 61.934 20.914C63.2753 20.914 64.153 19.8045 64.153 18.0887Z" fill="white"/>
<path d="M67.3135 10.77H69.0366V22.2866H67.3135V10.77Z" fill="white"/>
<path d="M78.008 19.821C77.616 21.4622 76.0714 22.5598 74.3924 22.3905C71.9507 22.3905 70.4336 20.7538 70.4336 18.1291C70.4336 15.4951 71.958 13.7876 74.3206 13.7876C76.6427 13.7876 78.1036 15.3838 78.1036 17.9294V18.5201H72.1742V18.624C72.119 19.2487 72.3343 19.8679 72.7667 20.3233C73.1991 20.7787 73.8054 21.0262 74.4328 21.0022C75.2691 21.0804 76.0576 20.6002 76.3722 19.821H78.008ZM72.1816 17.3149H76.3796C76.4108 16.7528 76.2066 16.2035 75.8156 15.7996C75.4246 15.3948 74.8827 15.1722 74.3206 15.1842C73.7539 15.1805 73.2083 15.404 72.8072 15.8042C72.4052 16.2035 72.1807 16.7472 72.1816 17.3149Z" fill="white"/>
<path d="M92.9721 22.2866V13.8106H92.916L89.4439 22.1992H88.1191L84.6397 13.8106H84.5845V22.2866H82.9561V10.77H85.0224L88.7502 19.8596H88.8146L92.5333 10.77H94.6088V22.2866H92.9721Z" fill="white"/>
<path d="M103.787 22.2865H102.136V20.8421H102.095C101.641 21.8541 100.6 22.4705 99.4937 22.3822C98.6703 22.4301 97.868 22.1127 97.3004 21.5137C96.7328 20.9148 96.4577 20.0969 96.5497 19.2781V13.8906H98.2738V18.9433C98.2738 20.2202 98.88 20.8983 100.069 20.8983C100.634 20.9167 101.181 20.6876 101.565 20.2708C101.948 19.8541 102.13 19.2901 102.064 18.728V13.8915H103.788L103.787 22.2865Z" fill="white"/>
<path d="M108.689 13.7949C110.548 13.7949 111.881 14.8253 111.921 16.3093H110.302C110.229 15.5668 109.6 15.1124 108.642 15.1124C107.707 15.1124 107.085 15.5429 107.085 16.198C107.085 16.7003 107.5 17.0352 108.371 17.2514L109.783 17.578C111.475 17.9855 112.113 18.6084 112.113 19.8375C112.113 21.3536 110.677 22.3914 108.626 22.3914C106.647 22.3914 105.313 21.3776 105.187 19.8448H106.894C107.015 20.6517 107.66 21.0822 108.706 21.0822C109.735 21.0822 110.383 20.659 110.383 19.9884C110.383 19.4704 110.063 19.1907 109.186 18.9672L107.685 18.6001C106.169 18.233 105.403 17.4593 105.403 16.2946C105.401 14.8088 106.733 13.7949 108.689 13.7949Z" fill="white"/>
<path d="M113.455 11.68C113.447 11.2724 113.686 10.9007 114.061 10.7397C114.435 10.5787 114.869 10.6597 115.159 10.9458C115.45 11.2319 115.538 11.6643 115.383 12.0415C115.227 12.4178 114.859 12.6634 114.453 12.6616C113.906 12.6653 113.461 12.2264 113.455 11.68ZM113.591 13.8907H115.315V22.2866H113.591V13.8907Z" fill="white"/>
<path d="M122.74 16.7795C122.584 15.8273 121.723 15.1539 120.761 15.2312C119.437 15.2312 118.559 16.3407 118.559 18.0887C118.559 19.8762 119.444 20.9545 120.778 20.9545C121.728 21.0492 122.589 20.3878 122.741 19.4457H124.4C124.186 21.2516 122.571 22.5571 120.761 22.3915C118.367 22.3915 116.802 20.7548 116.802 18.0896C116.802 15.4805 118.366 13.7886 120.744 13.7886C122.567 13.634 124.182 14.9616 124.383 16.7804L122.74 16.7795Z" fill="white"/>
<path fill-rule="evenodd" clip-rule="evenodd" d="M34 10.6335C34 10.2266 34 9.8203 34 9.4146C34 9.0746 34 8.7346 33.9847 8.3946C33.9751 7.6467 33.9092 6.90053 33.7875 6.1625C33.6619 5.42329 33.4264 4.70702 33.0888 4.0375C32.4035 2.69162 31.3097 1.59724 29.9642 0.9112C29.2956 0.57439 28.5805 0.33892 27.8426 0.2125C27.104 0.0909001 26.3573 0.02498 25.6088 0.0153C25.2688 0.00510004 24.9288 0.0017 24.5888 0H9.4163C9.0763 0 8.7363 3.53903e-08 8.3963 0.0153C7.64611 0.02472 6.89769 0.0906401 6.1574 0.2125C5.41912 0.33844 4.70395 0.57454 4.0358 0.9129C2.6917 1.5979 1.59863 2.69037 0.9129 4.0341C0.575344 4.70303 0.339834 5.41873 0.2142 6.1574C0.092597 6.89601 0.026678 7.6427 0.017 8.3912C0.0068 8.7312 0.0034 9.0712 0.0017 9.4112C0.000566667 9.8226 0 10.23 0 10.6335V23.3614C0 23.766 0 24.1723 0 24.5803C0 24.9203 0 25.2603 0.0153 25.6003C0.024901 26.3488 0.0908205 27.0955 0.2125 27.8341C0.338134 28.5728 0.573644 29.2885 0.9112 29.9574C1.59693 31.3011 2.69 32.3936 4.0341 33.0786C4.70267 33.4159 5.41769 33.652 6.1557 33.779C6.89424 33.9009 7.64101 33.9662 8.3895 33.9745C8.7295 33.9847 9.0695 33.9881 9.4095 33.9898C9.8158 33.9898 10.2221 33.9898 10.6284 33.9898H24.5684C24.9084 33.9898 25.2484 33.9898 25.5884 33.9745C26.3369 33.9664 27.0837 33.901 27.8222 33.779C28.5609 33.6528 29.2766 33.4167 29.9455 33.0786C31.2886 32.3928 32.3809 31.3005 33.0667 29.9574C33.4048 29.2885 33.6409 28.5728 33.7671 27.8341C33.889 27.0956 33.9543 26.3488 33.9626 25.6003C33.9728 25.2603 33.9762 24.9203 33.9779 24.5803C33.9779 24.174 33.9779 23.7677 33.9779 23.3614V10.6335H34Z" fill="url(#paint0_linear)"/>
<path fill-rule="evenodd" clip-rule="evenodd" d="M24.0359 5.19343C23.9543 5.19343 23.2233 5.32943 23.1349 5.34813L13.0301 7.3881C12.7996 7.4278 12.5827 7.5249 12.3994 7.6703C12.2091 7.8397 12.088 8.0734 12.0594 8.3265C12.044 8.4392 12.0366 8.5528 12.0373 8.6665V21.3145C12.0646 21.608 11.9849 21.9014 11.8129 22.1407C11.6225 22.3539 11.3595 22.4885 11.0751 22.5181L10.4155 22.6507C9.7799 22.7556 9.15432 22.9143 8.54554 23.125C8.12866 23.2744 7.75132 23.5168 7.44224 23.8339C6.43395 24.9204 6.49399 26.6176 7.57654 27.63C7.91977 27.949 8.34459 28.1667 8.80394 28.259C9.31394 28.361 9.84264 28.3253 10.6263 28.1672C11.0419 28.0898 11.4413 27.9426 11.8078 27.732C12.1764 27.5152 12.4936 27.2212 12.7377 26.8701C12.9809 26.5195 13.1493 26.1225 13.2324 25.7039C13.3152 25.2922 13.3528 24.8726 13.3446 24.4527V13.486C13.3446 12.8978 13.5146 12.7431 13.9855 12.636C13.9855 12.636 22.3852 10.936 22.7779 10.8663C23.3236 10.7609 23.582 10.9173 23.582 11.4902V18.9702C23.582 19.266 23.582 19.5669 23.3763 19.8202C23.1864 20.0328 22.9238 20.1668 22.6402 20.1959L21.9789 20.3302C21.3434 20.4349 20.7179 20.593 20.1089 20.8028C19.6926 20.9532 19.3155 21.1955 19.0056 21.5117C18.5092 22.0276 18.2432 22.7227 18.2685 23.4382C18.2939 24.1537 18.6083 24.8283 19.1399 25.3078C19.4841 25.6244 19.9087 25.8402 20.3673 25.9317C20.8773 26.0337 21.4077 25.9963 22.1914 25.8399C22.6061 25.7641 23.005 25.6187 23.3712 25.4098C23.7397 25.1936 24.0569 24.9001 24.3011 24.5496C24.5441 24.1988 24.7124 23.8019 24.7958 23.3834C24.873 22.9705 24.9049 22.5504 24.891 22.1305V6.08593C24.8893 5.50453 24.5833 5.14583 24.0359 5.19343Z" fill="white"/>
<defs>
<linearGradient id="paint0_linear" x1="17" y1="33.8657" x2="17" y2="0.731" gradientUnits="userSpaceOnUse">
<stop stop-color="#FA233B"/>
<stop offset="1" stop-color="#FB5C74"/>
</linearGradient>
</defs>
</svg>