<svg width="75" height="18" viewBox="0 0 75 18" fill="none" xmlns="http://www.w3.org/2000/svg">
<path d="M11.7132 9.52938C11.7132 8.0735 12.3088 6.9485 13.5662 6.15438C12.8382 5.09556 11.7794 4.49997 10.3897 4.36761C9.92647 4.30144 9.26471 4.43379 8.47059 4.6985C7.61029 5.02938 7.14706 5.16173 7.08088 5.16173C6.88235 5.16173 6.41912 5.02938 5.82353 4.76467C5.22794 4.49997 4.69853 4.36761 4.23529 4.36761C3.50735 4.36761 2.84559 4.56614 2.18382 4.9632C1.52206 5.36026 1.05882 5.88967 0.661765 6.61761C0.264706 7.54409 0 8.53673 0 9.72791C0 10.7867 0.198529 11.8456 0.529412 12.9706C0.860294 14.0294 1.25735 14.8897 1.78676 15.6838C2.25 16.4117 2.64706 16.875 2.97794 17.2059C3.50735 17.7353 4.03676 17.9338 4.5 17.9338C4.83088 17.9338 5.29412 17.8014 5.82353 17.5367C6.35294 17.3375 6.81618 17.2059 7.34559 17.2059C7.80882 17.2059 8.27206 17.3375 8.80147 17.5367C9.33088 17.8008 9.79412 17.8676 10.1912 17.8676C10.7206 17.8676 11.1838 17.6029 11.6471 17.139C11.7794 17.0067 11.9779 16.8081 12.1765 16.5441C12.375 16.2794 12.5735 16.014 12.7721 15.6176C12.9044 15.3529 13.1029 15.0882 13.2353 14.8235C13.3676 14.5595 13.5 14.2286 13.6324 13.8977C13.6985 13.7653 13.7647 13.633 13.7647 13.5C13.8309 13.3676 13.8309 13.2359 13.8971 13.1029C13.5 12.9044 13.1029 12.6397 12.7721 12.3088C12.1103 11.647 11.7132 10.6544 11.7132 9.52938Z" fill="white"/>
<path d="M24.1544 12.772H24.0882L20.5809 4.63233H17.8676V17.7353H20.25V9.26468H20.3823L23.2941 16.0147H24.9485L27.8603 9.26468H27.9926V17.7353H30.375V4.63233H27.6618L24.1544 12.772Z" fill="white"/>
<path d="M9.52943 2.91177C10.125 2.11765 10.4559 1.32353 10.4559 0.397059C10.4559 0.330882 10.4559 0.264706 10.4559 0.198529C10.4559 0.132353 10.4559 0.0661765 10.4559 0C10.0588 0 9.59561 0.132353 9.13237 0.397059C8.60296 0.727941 8.2059 1.05882 7.87502 1.45588C7.27943 2.18382 6.94855 3.04412 6.94855 3.90441C6.94855 3.97059 6.94855 4.03677 6.94855 4.10294C6.94855 4.16912 6.94855 4.23529 6.94855 4.30147C7.9412 4.30147 8.80149 3.83824 9.52943 2.91177Z" fill="white"/>
<path d="M61.0809 4.63233H58.3676V17.7353H61.0809V4.63233Z" fill="white"/>
<path d="M69.1544 6.75004C70.7426 6.75004 71.6029 8.00739 71.6029 9.33092H74.1831V9.06622C74.1831 6.55151 72.2647 4.43386 69.1537 4.43386C65.7787 4.43386 63.7934 6.68386 63.7934 10.5221V11.978C63.7934 15.8162 65.7787 18 69.1537 18C72.3964 18 74.1831 15.8831 74.1831 13.5V13.2353H71.6029C71.6029 14.5589 70.8088 15.6832 69.1544 15.6832C67.5 15.6832 66.5073 14.492 66.5073 11.9773V10.5214C66.5073 7.94122 67.5662 6.75004 69.1544 6.75004Z" fill="white"/>
<path d="M40.6985 12.9044C40.6985 14.6905 39.7059 15.6176 38.1838 15.6176C36.6618 15.6176 35.6691 14.6912 35.6691 12.9044V4.63233H33.0221V13.3014C33.0221 16.0809 34.9412 18 38.1838 18C41.4265 18 43.3456 16.0815 43.3456 13.3014V4.63233H40.6985V12.9044Z" fill="white"/>
<path d="M52.2794 10.125L50.3603 9.66173C49.236 9.39703 48.6397 8.93379 48.6397 8.13967C48.6397 7.14703 49.4338 6.48526 50.7573 6.48526C52.2132 6.48526 52.9412 7.34556 53.0067 8.27203H55.5221C55.5221 5.95585 53.6029 4.36761 50.7573 4.36761C48.1103 4.36761 45.9926 5.8235 45.9926 8.3382C45.9926 10.5882 47.4485 11.5809 49.2353 11.9779L51.1538 12.4411C52.4111 12.772 53.0729 13.1691 53.0729 14.0287C53.0729 15.0214 52.2787 15.75 50.7567 15.75C49.1685 15.75 48.3082 14.8897 48.242 13.897H45.6618C45.7279 15.75 46.9191 17.9338 50.625 17.9338C53.7353 17.9338 55.7206 16.3456 55.7206 13.7647C55.6544 11.4485 54.1324 10.522 52.2794 10.125Z" fill="white"/>
</svg>
