<svg height="24" viewBox="0 0 81 24" fill="none" xmlns="http://www.w3.org/2000/svg">
<path d="M12.3223 0C5.71824 0 0.322266 5.39597 0.322266 12C0.322266 18.604 5.71824 24 12.3223 24C18.9263 24 24.3223 18.604 24.3223 12C24.3223 5.39597 19.0068 0 12.3223 0ZM17.8793 17.3154C17.6377 17.6376 17.235 17.7987 16.8323 17.557C14.0135 15.8658 10.4699 15.4631 6.282 16.4295C5.87931 16.5101 5.47663 16.2685 5.39609 15.8658C5.31555 15.4631 5.55716 15.0604 5.95985 14.9799C10.5505 13.9329 14.4968 14.4161 17.6377 16.349C17.9598 16.5101 18.0404 16.9933 17.8793 17.3154ZM19.329 14.0134C19.0874 14.4161 18.4431 14.5772 18.0404 14.3356C14.8189 12.3221 9.90616 11.7584 6.04039 12.9664C5.55716 13.1275 4.99341 12.8054 4.83233 12.3221C4.67126 11.8389 4.99341 11.2752 5.47663 11.1141C9.82562 9.8255 15.3021 10.4698 19.0068 12.7248C19.4901 13.047 19.5706 13.6107 19.329 14.0134ZM19.49 10.6309C15.6243 8.2953 9.26186 8.13423 5.55716 9.26174C4.99341 9.42282 4.34911 9.10067 4.18804 8.53691C4.02696 7.97315 4.34911 7.32886 4.91287 7.16778C9.18133 5.87919 16.188 6.1208 20.6981 8.77852C21.2619 9.10067 21.4229 9.8255 21.1008 10.3087C20.6981 10.7919 19.9733 10.953 19.49 10.6309Z" fill="#2EBD59"/>
<path d="M33.0203 11.1142C30.9263 10.6309 30.6041 10.3088 30.6041 9.50341C30.6041 8.77858 31.2484 8.3759 32.2149 8.3759C33.1813 8.3759 34.0672 8.69804 35.0337 9.42288H35.1142C35.1142 9.42288 35.1948 9.42288 35.1948 9.34234L36.2417 7.89268C36.3223 7.81214 36.2417 7.7316 36.2417 7.7316C35.1142 6.76516 33.7451 6.36248 32.2954 6.36248C30.0404 6.36248 28.5102 7.7316 28.5102 9.66449C28.5102 11.7584 29.8793 12.4833 32.2149 13.047C34.2283 13.5311 34.5505 13.8524 34.5505 14.5772C34.5505 15.3013 33.9062 15.7853 32.7786 15.7853C31.5706 15.7853 30.6041 15.3826 29.4766 14.4162H29.3961C29.3961 14.4162 29.3156 14.4162 29.3156 14.4967L28.188 15.8658C28.1075 15.9472 28.1075 16.0269 28.188 16.0269C29.4766 17.1544 31.0874 17.7987 32.7786 17.7987C35.1948 17.7987 36.725 16.5093 36.725 14.4162C36.5639 12.6444 35.5169 11.6779 33.0203 11.1142Z" fill="#2EBD59"/>
<path d="M42.0404 9.02022C40.9934 9.02022 40.1075 9.4229 39.4632 10.3088V9.34236C39.4632 9.26183 39.3827 9.18129 39.3021 9.18129H37.4498C37.3692 9.18129 37.2887 9.26183 37.2887 9.34236V19.8927C37.2887 19.974 37.3692 20.0538 37.4498 20.0538H39.3021C39.3827 20.0538 39.4632 19.9732 39.4632 19.8927V16.5907C40.188 17.3961 40.9934 17.7987 42.0404 17.7987C43.9733 17.7987 45.9867 16.2685 45.9867 13.4497C45.9867 10.5504 43.9733 9.02022 42.0404 9.02022ZM43.8122 13.3692C43.8122 14.8189 42.9263 15.8659 41.6377 15.8659C40.3491 15.8659 39.3827 14.8189 39.3827 13.3692C39.3827 11.9195 40.3491 10.8726 41.6377 10.8726C42.8457 10.9531 43.8122 11.9195 43.8122 13.3692Z" fill="#2EBD59"/>
<path d="M50.98 9.02022C48.4834 9.02022 46.5505 10.9531 46.5505 13.4497C46.5505 15.8659 48.4834 17.7987 50.98 17.7987C53.4766 17.7987 55.4901 15.8659 55.4901 13.4497C55.4901 10.9531 53.4766 9.02022 50.98 9.02022ZM50.98 15.8659C49.6109 15.8659 48.6444 14.8189 48.6444 13.3692C48.6444 11.9195 49.6109 10.8726 50.98 10.8726C52.3491 10.8726 53.3156 11.9195 53.3156 13.3692C53.3156 14.8189 52.3491 15.8659 50.98 15.8659Z" fill="#2EBD59"/>
<path d="M60.8055 9.18125H58.7921V7.08729C58.7921 7.00676 58.7115 6.92622 58.6318 6.92622H56.7787C56.6981 6.92622 56.6184 7.00676 56.6184 7.08729V9.18125H55.7317C55.6511 9.18125 55.5706 9.26179 55.5706 9.34233V10.9531C55.5706 11.0336 55.652 11.1141 55.7317 11.1141H56.6176V15.2215C56.6176 16.9128 57.423 17.7182 59.1142 17.7182C59.7585 17.7182 60.3223 17.5579 60.886 17.3155C60.9666 17.3155 60.9666 17.2349 60.9666 17.2349V15.7047C60.9666 15.6242 60.9666 15.6242 60.886 15.6242C60.8047 15.6242 60.8047 15.6242 60.725 15.6242C60.4028 15.7853 60.0001 15.8658 59.5975 15.8658C59.0345 15.8658 58.7115 15.6242 58.7115 14.9799V11.1141H60.725C60.8055 11.1141 60.886 11.0336 60.886 10.9531V9.34233C60.9666 9.26179 60.886 9.18125 60.8055 9.18125Z" fill="#2EBD59"/>
<path d="M67.8928 9.18119V8.93958C67.8928 8.21475 68.2141 7.81207 68.8584 7.81207C69.2611 7.81207 69.5832 7.8926 69.9062 7.97314C69.9867 7.97314 69.9867 7.97314 70.0664 7.97314L70.1478 7.8926V6.3624C70.1478 6.28186 70.1478 6.28186 70.0664 6.20133C69.6638 6.12079 69.2611 5.95972 68.537 5.95972C66.845 5.95972 65.8793 6.92616 65.8793 8.77851V9.18119H64.9934C64.9129 9.18119 64.8324 9.26173 64.8324 9.34227V10.953C64.8324 11.0335 64.9137 11.1141 64.9934 11.1141H65.8793V17.4765C65.8793 17.5578 65.9599 17.6376 66.0396 17.6376H67.8928C67.9733 17.6376 68.053 17.557 68.053 17.4765V11.1141H69.8248L72.4826 17.4765C72.1612 18.1208 71.9196 18.2819 71.5169 18.2819C71.1948 18.2819 70.8726 18.2013 70.4699 17.9597H70.3894C70.3894 17.9597 70.3089 17.9597 70.3089 18.0403L69.6646 19.4094C69.6646 19.4899 69.6646 19.5705 69.7459 19.5705C70.3894 19.8926 71.0337 20.0537 71.7585 20.0537C73.1276 20.0537 73.8525 19.4094 74.5773 17.7181L77.7988 9.4228C77.7988 9.34227 77.7988 9.34227 77.7988 9.26173L77.7183 9.18119H75.7854C75.704 9.18119 75.704 9.18119 75.6243 9.26173L73.6109 14.8993L71.4364 9.26173C71.4364 9.18119 71.3558 9.18119 71.2753 9.18119H67.8928Z" fill="#2EBD59"/>
<path d="M63.7854 9.1812H61.933C61.8525 9.1812 61.7719 9.26174 61.7719 9.34228V17.4765C61.7719 17.5578 61.8533 17.6376 61.933 17.6376H63.7854C63.8667 17.6376 63.9464 17.557 63.9464 17.4765V9.34228C63.9464 9.26174 63.8659 9.1812 63.7854 9.1812Z" fill="#2EBD59"/>
<path d="M62.8994 5.47646C62.1746 5.47646 61.5303 6.04022 61.5303 6.84559C61.5303 7.57043 62.0941 8.21472 62.8994 8.21472C63.7048 8.21472 64.2686 7.65096 64.2686 6.84559C64.188 6.12076 63.6243 5.47646 62.8994 5.47646Z" fill="#2EBD59"/>
<path d="M79.1679 11.8389C78.443 11.8389 77.8785 11.2751 77.8785 10.5503C77.8785 9.82545 78.4422 9.26169 79.1679 9.26169C79.8919 9.26169 80.4565 9.82545 80.4565 10.5503C80.4565 11.1946 79.8927 11.8389 79.1679 11.8389ZM79.1679 9.34223C78.5228 9.34223 77.9598 9.90599 77.9598 10.5503C77.9598 11.1946 78.443 11.7583 79.1679 11.7583C79.8122 11.7583 80.3759 11.1946 80.3759 10.5503C80.2954 9.82545 79.8122 9.34223 79.1679 9.34223ZM79.4095 10.6308L79.8122 11.114H79.49L79.1679 10.6308H78.8457V11.114H78.6041V9.74492H79.2484C79.5706 9.74492 79.8122 9.90599 79.8122 10.1476C79.7316 10.4697 79.6511 10.5503 79.4095 10.6308ZM79.2484 9.98653H78.9263V10.3892H79.2484C79.4095 10.3892 79.49 10.3087 79.49 10.1476C79.49 10.0671 79.4095 9.98653 79.2484 9.98653Z" fill="#2EBD59"/>
</svg>
