<svg width="81" height="18" viewBox="0 0 81 18" fill="none" xmlns="http://www.w3.org/2000/svg">
<path d="M25.1767 2.81071C24.8811 1.70441 24.0098 0.833031 22.9035 0.537355C20.8981 0 12.857 0 12.857 0C12.857 0 4.81604 0 2.81068 0.537355C1.7044 0.833031 0.83302 1.70441 0.537348 2.81071C0 4.81606 0 8.99993 0 8.99993C0 8.99993 0 13.184 0.537348 15.1892C0.83302 16.2954 1.7044 17.1669 2.81068 17.4625C4.81604 18 12.857 18 12.857 18C12.857 18 20.8981 18 22.9035 17.4625C24.0098 17.1669 24.8811 16.2954 25.1767 15.1892C25.7142 13.184 25.7142 8.99993 25.7142 8.99993C25.7142 8.99993 25.7142 4.81606 25.1767 2.81071Z" fill="#ED1D24"/>
<path d="M10.2856 12.8572L16.9662 9.00008L10.2856 5.14289V12.8572Z" fill="white"/>
<path d="M40.1743 14.6098C40.315 14.2423 40.3857 13.6416 40.3857 12.808V9.29549C40.3857 8.48644 40.315 7.89509 40.1743 7.52106C40.0333 7.14724 39.785 6.96015 39.4296 6.96015C39.0863 6.96015 38.844 7.14724 38.7032 7.52106C38.5622 7.89509 38.4918 8.48644 38.4918 9.29549V12.808C38.4918 13.6416 38.5591 14.2423 38.6941 14.6098C38.8287 14.9777 39.0738 15.1614 39.4296 15.1614C39.785 15.1614 40.0333 14.9777 40.1743 14.6098ZM37.3242 16.3752C36.8152 16.0323 36.4534 15.4989 36.2392 14.7753C36.0246 14.0522 35.9175 13.0898 35.9175 11.8884V10.2518C35.9175 9.03817 36.0398 8.06345 36.2851 7.32798C36.5303 6.59244 36.9132 6.05625 37.4345 5.719C37.9554 5.38199 38.6389 5.21331 39.4849 5.21331C40.3184 5.21331 40.9864 5.38506 41.4891 5.72817C41.9916 6.07138 42.3595 6.60791 42.5926 7.33716C42.8252 8.06667 42.9418 9.03817 42.9418 10.2518V11.8884C42.9418 13.0898 42.8284 14.0554 42.6017 14.7847C42.3748 15.5141 42.0069 16.0474 41.4982 16.3844C40.9894 16.7215 40.3 16.8901 39.4296 16.8901C38.5345 16.8901 37.8326 16.7183 37.3242 16.3752Z" fill="white"/>
<path d="M76.7025 7.17093C76.5741 7.33034 76.4879 7.59086 76.4452 7.95236C76.402 8.31408 76.381 8.86259 76.381 9.59812V10.4073H78.238V9.59812C78.238 8.87499 78.2134 8.32639 78.1645 7.95236C78.1154 7.57854 78.0267 7.31512 77.898 7.16175C77.7691 7.00846 77.57 6.93182 77.3003 6.93182C77.0304 6.93182 76.8312 7.01168 76.7025 7.17093ZM76.381 11.9152V12.4853C76.381 13.2088 76.402 13.7512 76.4452 14.1126C76.4879 14.4744 76.5766 14.738 76.7119 14.9036C76.8467 15.0688 77.0548 15.1518 77.3371 15.1518C77.7168 15.1518 77.9776 15.0046 78.1186 14.7103C78.2593 14.4161 78.336 13.9258 78.3482 13.2391L80.5367 13.3679C80.5489 13.4663 80.5551 13.6011 80.5551 13.7724C80.5551 14.8146 80.2702 15.5931 79.6999 16.108C79.1301 16.6227 78.3237 16.8802 77.2819 16.8802C76.0316 16.8802 75.1548 16.4881 74.6524 15.7033C74.1494 14.919 73.8982 13.7053 73.8982 12.0624V10.0946C73.8982 8.40289 74.1588 7.16803 74.6799 6.38925C75.2008 5.61088 76.0927 5.22162 77.3555 5.22162C78.2257 5.22162 78.8939 5.38103 79.3598 5.69969C79.8255 6.01867 80.1535 6.51517 80.3436 7.1892C80.5337 7.86355 80.6287 8.79538 80.6287 9.98435V11.9152H76.381Z" fill="white"/>
<path d="M31.1449 11.7041L28.2578 1.27751H30.7771L31.7884 6.00351C32.046 7.16841 32.2359 8.16135 32.3584 8.98247H32.4321C32.5178 8.3941 32.7079 7.40736 33.0021 6.02194L34.0502 1.27751H36.5695L33.6458 11.7041V16.7062H31.1449V11.7041Z" fill="white"/>
<path d="M51.1355 5.43395V16.7063H49.1494L48.9287 15.3272H48.8736C48.3341 16.3691 47.5249 16.89 46.4463 16.89C45.6984 16.89 45.1468 16.6451 44.7912 16.1546C44.4356 15.6645 44.2581 14.898 44.2581 13.856V5.43395H46.7957V13.7088C46.7957 14.2118 46.851 14.5702 46.9612 14.7846C47.0715 14.9993 47.2555 15.1064 47.5128 15.1064C47.7336 15.1064 47.9451 15.0392 48.1472 14.904C48.3495 14.7692 48.4996 14.5979 48.5978 14.3894V5.43395H51.1355Z" fill="white"/>
<path d="M64.1518 5.43395V16.7063H62.1658L61.945 15.3272H61.8902C61.3502 16.3691 60.5413 16.89 59.4626 16.89C58.7148 16.89 58.1632 16.6451 57.8076 16.1546C57.452 15.6645 57.2744 14.898 57.2744 13.856V5.43395H59.8121V13.7088C59.8121 14.2118 59.8671 14.5702 59.9774 14.7846C60.0879 14.9993 60.2718 15.1064 60.5292 15.1064C60.75 15.1064 60.9614 15.0392 61.1636 14.904C61.3659 14.7692 61.516 14.5979 61.6142 14.3894V5.43395H64.1518Z" fill="white"/>
<path d="M58.0309 3.31909H55.5117V16.7062H53.0293V3.31909H50.51V1.27785H58.0309V3.31909Z" fill="white"/>
<path d="M70.2247 11.8338C70.2247 12.6552 70.1907 13.2989 70.1234 13.7646C70.056 14.2307 69.9426 14.5616 69.7832 14.7576C69.6238 14.9538 69.409 15.0518 69.1397 15.0518C68.931 15.0518 68.738 15.003 68.5604 14.9046C68.3824 14.8066 68.2387 14.6596 68.1282 14.4632V8.06399C68.2139 7.75773 68.361 7.50629 68.5695 7.3101C68.778 7.11422 69.0045 7.0159 69.2498 7.0159C69.5074 7.0159 69.7064 7.11712 69.8476 7.31926C69.9883 7.52151 70.0865 7.86174 70.1418 8.33998C70.197 8.81796 70.2247 9.49836 70.2247 10.381V11.8338ZM72.5507 7.23576C72.3973 6.52495 72.149 6.01009 71.8059 5.69111C71.4626 5.37262 70.9906 5.21313 70.3901 5.21313C69.9242 5.21313 69.489 5.345 69.0845 5.60841C68.68 5.87209 68.3672 6.21845 68.1466 6.64748H68.128L68.1282 0.70779H65.6826V16.706H67.7787L68.0363 15.6396H68.0914C68.2874 16.0195 68.5816 16.3199 68.974 16.5406C69.3662 16.7612 69.8016 16.8716 70.2798 16.8716C71.1377 16.8716 71.7691 16.4761 72.1738 15.6855C72.5783 14.8947 72.7806 13.6598 72.7806 11.9801V10.1964C72.7806 8.93389 72.7038 7.947 72.5507 7.23576Z" fill="white"/>
</svg>
